<svg xmlns="http://www.w3.org/2000/svg" xmlns:xlink="http://www.w3.org/1999/xlink" xml:space="preserve" version="1.1" style="shape-rendering:geometricPrecision;text-rendering:geometricPrecision;image-rendering:optimizeQuality;" viewBox="0 0 60000 75000" x="0px" y="0px" fill-rule="evenodd" clip-rule="evenodd"><defs><style type="text/css">
   
    .fil0 {fill:black;fill-rule:nonzero}
   
  </style></defs><g><path class="fil0" d="M31018 54881l-149 577 -577 -149 149 -577 577 149zm-21579 -39855c-103,0 -186,-83 -186,-186 0,-103 83,-186 186,-186l2359 0 -1075 -1075c-73,-73 -73,-191 0,-264 73,-73 191,-73 264,0l1075 1075 0 -2359c0,-103 83,-186 186,-186 103,0 186,83 186,186l0 2359 1075 -1075c73,-73 191,-73 264,0 73,73 73,191 0,264l-1075 1075 2359 0c103,0 186,83 186,186 0,103 -83,186 -186,186l-2359 0 1075 1075c73,73 73,191 0,264 -73,73 -191,73 -264,0l-1075 -1075 0 2359c0,103 -83,186 -186,186 -103,0 -186,-83 -186,-186l0 -2359 -1075 1075c-73,73 -191,73 -264,0 -73,-73 -73,-191 0,-264l1075 -1075 -2359 0zm14406 -6529l51 -17 44 0c165,0 298,133 298,298 0,142 -100,262 -233,291 -1189,388 -2425,262 -3464,-258 -1041,-520 -1884,-1436 -2287,-2624l-7 -22c-799,-2397 497,-4987 2894,-5786l49 -16 44 0c165,0 298,133 298,298 0,140 -97,258 -227,290 -435,159 -718,689 -825,1423 -119,816 -13,1859 345,2933l0 1c358,1075 899,1972 1483,2552 534,531 1087,785 1536,637l1 0zm-3037 -217c485,243 1019,387 1571,416 -165,-117 -329,-256 -489,-414 -642,-638 -1233,-1612 -1622,-2771l-6 -17c-388,-1165 -502,-2305 -370,-3204 33,-223 80,-433 143,-626 -423,354 -765,790 -1008,1275 -455,911 -563,1996 -216,3040l0 1c347,1043 1085,1845 1996,2301zm17677 6746c-103,0 -186,-83 -186,-186 0,-103 83,-186 186,-186l2359 0 -1075 -1075c-73,-73 -73,-191 0,-264 73,-73 191,-73 264,0l1075 1075 0 -2359c0,-103 83,-186 186,-186 103,0 186,83 186,186l0 2359 1075 -1075c73,-73 191,-73 264,0 73,73 73,191 0,264l-1075 1075 2359 0c103,0 186,83 186,186 0,103 -83,186 -186,186l-2359 0 1075 1075c73,73 73,191 0,264 -73,73 -191,73 -264,0l-1075 -1075 0 2359c0,103 -83,186 -186,186 -103,0 -186,-83 -186,-186l0 -2359 -1075 1075c-73,73 -191,73 -264,0 -73,-73 -73,-191 0,-264l1075 -1075 -2359 0zm-6951 -7424c-103,0 -186,-83 -186,-186 0,-103 83,-186 186,-186l2359 0 -1075 -1075c-73,-73 -73,-191 0,-264 73,-73 191,-73 264,0l1075 1075 0 -2359c0,-103 83,-186 186,-186 103,0 186,83 186,186l0 2359 1075 -1075c73,-73 191,-73 264,0 73,73 73,191 0,264l-1075 1075 2359 0c103,0 186,83 186,186 0,103 -83,186 -186,186l-2359 0 1075 1075c73,73 73,191 0,264 -73,73 -191,73 -264,0l-1075 -1075 0 2359c0,103 -83,186 -186,186 -103,0 -186,-83 -186,-186l0 -2359 -1075 1075c-73,73 -191,73 -264,0 -73,-73 -73,-191 0,-264l1075 -1075 -2359 0zm-19072 19515c-24,-22 -45,-49 -61,-80 -599,-1134 -704,-2268 -457,-3299 233,-972 780,-1847 1520,-2540 735,-687 1664,-1195 2666,-1439 1215,-295 2538,-203 3760,429l17 -17c1130,-1110 2738,-1541 4290,-1358 380,45 760,127 1133,244 1498,-1361 3282,-1876 4972,-1791 1177,59 2307,408 3263,964 295,171 573,362 832,571l3297 -1807c144,-79 325,-26 404,118 79,144 26,325 -118,404l-3112 1706c377,374 695,789 937,1235 260,478 434,993 503,1528 675,-194 1433,-118 2133,165 583,235 1130,615 1555,1100 8,10 17,19 25,29 1086,-60 2028,321 2736,959 531,479 928,1103 1152,1791 224,689 275,1443 115,2186 -236,1089 -926,2148 -2194,2924 -9,5 -18,10 -28,15 -135,993 -635,1877 -1417,2505 -675,543 -1529,866 -2396,893 -156,238 -338,441 -541,613 -664,562 -1551,787 -2408,743 -230,999 -807,1764 -1591,2265 -814,519 -1847,747 -2942,646l-22 3192c-1,164 -134,297 -298,296 -164,-1 -297,-134 -296,-298l31 -4517c1,-164 134,-297 298,-296 164,1 297,134 296,298l-5 727c983,101 1905,-93 2619,-549 639,-408 1113,-1028 1315,-1836 -723,-140 -1444,-475 -1962,-1007 -240,63 -487,107 -736,133 -766,80 -1557,-8 -2224,-240 -496,-172 -929,-424 -1239,-746 -647,222 -1336,326 -2019,318l46 7538c1,103 -83,186 -185,186 -103,1 -186,-83 -186,-185l-46 -7554c-296,-21 -591,-63 -882,-126l12 958c9,39 9,84 1,124l80 6594c2,164 -130,299 -294,300 -164,2 -299,-130 -300,-294l-39 -3191c-788,265 -1619,228 -2352,-7 -805,-259 -1494,-764 -1876,-1380 -621,148 -1253,173 -1870,95 -858,-108 -1685,-416 -2409,-868 -1046,-653 -1924,-1637 -2337,-2809 -844,-421 -1458,-1065 -1841,-1803l-3666 2010 15805 24949 6031 -7429c7,-10 15,-20 24,-29l1457 -1795c104,-127 291,-147 418,-43 127,104 147,291 43,418l-1180 1453 15207 4092 5726 -23212 -6057 492c-164,13 -307,-110 -320,-274 -13,-164 110,-307 274,-320l6468 -526 0 0c31,-2 63,0 94,8 159,39 257,200 218,360l-5895 23895c-1,6 -3,13 -4,19 -42,159 -206,253 -364,211l-15756 -4240 -6182 7615c-104,127 -291,147 -418,43 -26,-21 -48,-46 -65,-73l-7162 -11305 -8859 -2384c-125,-27 -223,-132 -234,-266l-849 -9609c-14,-164 107,-308 271,-323l1610 -142 -973 -1536c-87,-139 -46,-322 93,-410 5,-3 10,-6 15,-9l0 0 3993 -2189c-49,-141 -91,-283 -125,-428 -316,-1331 17,-2791 1010,-3758 8,-7 16,-16 24,-23l2 0zm16208 10377c0,-103 83,-186 186,-186 103,0 186,83 186,186l-16 4517c0,103 -83,186 -186,186 -103,0 -186,-83 -186,-186l16 -4517zm2976 3612c-164,7 -303,-119 -311,-283 -7,-164 119,-303 283,-311 1218,-61 1962,319 2310,857 185,286 257,612 230,940 -27,317 -148,637 -352,924 -471,664 -1392,1158 -2604,1010 -163,-20 -279,-168 -259,-332 20,-163 168,-279 332,-259 967,118 1688,-257 2047,-763 141,-198 224,-416 242,-628 17,-202 -25,-398 -134,-567 -242,-374 -809,-636 -1783,-586l-1 -1zm-9120 -475c162,-25 314,88 339,250 25,162 -88,314 -250,339 -1481,224 -2434,908 -2806,1671 -279,572 -224,1182 201,1665 559,633 1731,1045 3582,870 163,-16 309,104 323,268 16,163 -104,309 -268,323 -2066,195 -3411,-306 -4083,-1068 -586,-664 -677,-1529 -292,-2319 449,-923 1557,-1744 3253,-1999l0 1zm4051 5684c-155,-54 -236,-224 -182,-379 54,-155 224,-236 379,-182 766,270 1812,289 2771,101 902,-177 1711,-531 2107,-1026 102,-128 289,-149 417,-47 128,102 149,289 47,417 -490,612 -1429,1039 -2456,1240 -1054,206 -2217,180 -3083,-125l1 1zm-5075 -25296c-92,45 -203,7 -249,-84 -45,-92 -7,-203 84,-249 646,-320 1341,-525 2025,-553 623,-26 1235,94 1791,405 89,50 121,164 72,253 -50,89 -164,121 -253,72 -493,-276 -1038,-382 -1595,-359 -628,26 -1272,217 -1875,515l1 0zm9601 16853c-101,17 -197,-51 -215,-152 -17,-101 51,-197 152,-215 928,-159 2071,-561 2394,-1546 32,-98 136,-151 234,-119 98,32 151,136 119,234 -372,1133 -1607,1612 -2686,1797l1 1zm-12788 -4792c-164,11 -306,-113 -317,-277 -11,-164 113,-306 277,-317 1275,-87 1892,477 2578,1103 733,670 1555,1420 3575,1312l-10 -821c0,-28 4,-56 10,-82 -1531,-496 -2755,-1553 -3379,-3056 -63,-152 9,-326 161,-389 152,-63 326,9 389,161 454,1092 1244,1880 2181,2371 876,459 1879,661 2853,610 560,-29 1110,-142 1619,-337 10,-4 22,-9 32,-13 361,-141 703,-324 1012,-548 719,-520 1271,-1266 1518,-2233 40,-159 203,-256 362,-215 159,40 256,203 215,362 -285,1111 -919,1969 -1746,2568 -236,171 -488,320 -753,449 224,178 506,325 823,435 587,203 1288,282 1970,209 1075,-112 2193,-622 2574,-1718 54,-155 222,-237 377,-184 155,54 237,222 184,377 -288,831 -909,1414 -1701,1762 80,65 165,126 253,183 534,341 1213,531 1885,528 661,-2 1312,-192 1803,-609 75,-63 146,-132 213,-205 -379,-63 -748,-186 -1095,-374 -144,-78 -197,-259 -118,-403 78,-144 259,-197 403,-118 745,406 1625,445 2427,189 825,-264 1537,-831 1953,-1593 423,-776 552,-1780 180,-2944 -50,-156 36,-323 192,-374 156,-50 323,36 374,192 151,470 229,920 245,1344 914,-655 1422,-1485 1606,-2332 138,-637 94,-1285 -98,-1876 -192,-591 -531,-1125 -984,-1533 -510,-461 -1167,-762 -1920,-808 194,347 332,727 390,1134 123,841 -86,1783 -797,2746 -98,132 -284,159 -416,62 -132,-98 -159,-284 -62,-416 607,-821 787,-1612 686,-2308 -160,-1096 -1022,-1987 -2022,-2389 -630,-254 -1308,-311 -1879,-103 -10,410 -82,830 -224,1254 -52,156 -221,239 -376,188 -156,-52 -239,-221 -188,-376 349,-1040 206,-2049 -269,-2923 -265,-488 -633,-935 -1078,-1325 -29,-17 -56,-40 -78,-67 -263,-222 -552,-425 -860,-604 -878,-510 -1914,-831 -2993,-885 -1458,-73 -2993,341 -4312,1436 698,309 1357,753 1930,1337 115,117 113,306 -4,420 -117,115 -306,113 -420,-4 -941,-958 -2140,-1505 -3338,-1645 -1373,-162 -2804,206 -3806,1191 -651,640 -1110,1534 -1244,2678 -19,163 -166,281 -329,262 -163,-19 -281,-166 -262,-329 121,-1028 478,-1881 995,-2555 -1048,-502 -2174,-566 -3213,-314 -902,219 -1738,677 -2401,1297 -658,616 -1143,1388 -1348,2242 -214,892 -122,1879 399,2871 730,-496 1705,-767 2923,-665 164,13 286,157 273,321 -13,164 -157,286 -321,273 -1320,-110 -2299,266 -2942,891 -417,405 -695,914 -837,1466 -142,555 -145,1153 -9,1729 193,813 666,1577 1419,2105 -57,-379 -65,-767 -16,-1161 21,-162 169,-278 332,-257 162,21 278,169 257,332 -118,940 145,1852 659,2636 407,620 969,1159 1622,1567 656,410 1400,687 2170,784 1028,130 2104,-64 3072,-699 138,-90 322,-51 412,86 90,138 51,322 -86,412 -327,215 -665,385 -1010,513 320,437 849,797 1464,995 676,218 1450,235 2162,-60l-31 -2516c-2245,116 -3163,-723 -3983,-1472 -586,-535 -1113,-1016 -2137,-946l2 -4zm-2302 14371l-7230 -11414 -1621 143 804 9105 8047 2165zm28792 -33763c-135,93 -320,59 -413,-76 -93,-135 -59,-320 76,-413l1379 -954c135,-93 320,-59 413,76l1 1 0 0 7146 10496c78,114 66,263 -21,362l-5034 6255c-103,128 -290,148 -418,45 -128,-103 -148,-290 -45,-418l4903 -6091 -6853 -10067 -1133 783zm-2735 35307c165,0 298,-133 298,-298 0,-165 -133,-298 -298,-298l-1942 0 0 -1942c0,-165 -133,-298 -298,-298 -165,0 -298,133 -298,298l0 1942 -1942 0c-165,0 -298,133 -298,298 0,165 133,298 298,298l1942 0 0 1942c0,165 133,298 298,298 165,0 298,-133 298,-298l0 -1942 1942 0zm4669 -5237c165,0 298,-133 298,-298 0,-165 -133,-298 -298,-298l-2857 0 0 -2857c0,-165 -133,-298 -298,-298 -165,0 -298,133 -298,298l0 2857 -2857 0c-165,0 -298,133 -298,298 0,165 133,298 298,298l2857 0 0 2857c0,165 133,298 298,298 165,0 298,-133 298,-298l0 -2857 2857 0zm-4178 14113l-149 577 -577 -149 149 -577 577 149zm-1154 -299l-149 577 -577 -149 149 -577 577 149zm-1154 -299l-149 577 -577 -149 149 -577 577 149zm-1154 -299l-149 577 -577 -149 149 -577 577 149zm-1154 -299l-149 577 -577 -149 149 -577 577 149zm-1154 -299l-149 577 -577 -149 149 -577 577 149zm-1154 -299l-149 577 -577 -149 149 -577 577 149zm-1154 -299l-149 577 -577 -149 149 -577 577 149zm-1154 -299l-149 577 -577 -149 149 -577 577 149zm-1154 -299l-149 577 -577 -149 149 -577 577 149z"/></g><text x="0" y="60015" fill="#000000" font-size="5px" font-weight="bold" font-family="'Helvetica Neue', Helvetica, Arial-Unicode, Arial, Sans-serif">Created by Olena Panasovska</text><text x="0" y="60020" fill="#000000" font-size="5px" font-weight="bold" font-family="'Helvetica Neue', Helvetica, Arial-Unicode, Arial, Sans-serif">from the Noun Project</text></svg>