<svg xmlns:dc="http://purl.org/dc/elements/1.1/" xmlns:cc="http://creativecommons.org/ns#" xmlns:rdf="http://www.w3.org/1999/02/22-rdf-syntax-ns#" xmlns:svg="http://www.w3.org/2000/svg" xmlns="http://www.w3.org/2000/svg" xmlns:sodipodi="http://sodipodi.sourceforge.net/DTD/sodipodi-0.dtd" xmlns:inkscape="http://www.inkscape.org/namespaces/inkscape" version="1.1" x="0px" y="0px" viewBox="0 0 100 125"><g transform="translate(0,-952.3622)"><g transform="matrix(0.97024549,0,0,0.97024549,2237.3785,697.47575)"><g transform="translate(265.04298,190.01477)"><g transform="matrix(0.99945793,0,0,0.99945793,-704.24113,-162.80732)"><g transform="translate(319.2082,-10.606602)"><g transform="matrix(1.0005424,0,0,1.0005424,611.19968,-88.683459)"><g transform="matrix(0.99989577,0,0,0.99989577,-243.03618,377.17962)"><path style="" d="M 73.53125 0 C 72.990016 0 72.5625 0.42751594 72.5625 0.96875 C 72.5625 1.5099841 72.990016 1.96875 73.53125 1.96875 C 74.072484 1.96875 74.5 1.5099841 74.5 0.96875 C 74.5 0.42751594 74.072484 -3.0444878e-016 73.53125 0 z M 73.53125 3.9375 C 72.990016 3.9375 72.5625 4.3962659 72.5625 4.9375 C 72.5625 5.4787341 72.990016 5.90625 73.53125 5.90625 C 74.072484 5.90625 74.5 5.4787341 74.5 4.9375 C 74.5 4.3962659 74.072484 3.9375 73.53125 3.9375 z M 77.46875 3.9375 C 76.927516 3.9375 76.46875 4.3962659 76.46875 4.9375 C 76.46875 5.4787341 76.927516 5.90625 77.46875 5.90625 C 78.009984 5.90625 78.4375 5.4787341 78.4375 4.9375 C 78.4375 4.3962659 78.009984 3.9375 77.46875 3.9375 z M 73.53125 7.84375 C 72.990016 7.84375 72.5625 8.3025159 72.5625 8.84375 C 72.5625 9.3849841 72.990016 9.8125 73.53125 9.8125 C 74.072484 9.8125 74.5 9.3849841 74.5 8.84375 C 74.5 8.3025159 74.072484 7.84375 73.53125 7.84375 z M 77.46875 7.84375 C 76.927516 7.84375 76.46875 8.3025159 76.46875 8.84375 C 76.46875 9.3849841 76.927516 9.8125 77.46875 9.8125 C 78.009984 9.8125 78.4375 9.3849841 78.4375 8.84375 C 78.4375 8.3025159 78.009984 7.84375 77.46875 7.84375 z M 81.375 7.84375 C 80.833766 7.84375 80.40625 8.3025159 80.40625 8.84375 C 80.40625 9.3849841 80.833766 9.8125 81.375 9.8125 C 81.916234 9.8125 82.375 9.3849841 82.375 8.84375 C 82.375 8.3025159 81.916234 7.84375 81.375 7.84375 z M 93.125 7.84375 C 92.583766 7.84375 92.15625 8.2712659 92.15625 8.8125 C 92.15625 9.3537341 92.583766 9.78125 93.125 9.78125 C 93.666234 9.78125 94.09375 9.3537341 94.09375 8.8125 C 94.09375 8.2712659 93.666234 7.84375 93.125 7.84375 z M 85.28125 11.78125 C 84.740016 11.78125 84.3125 12.208766 84.3125 12.75 C 84.3125 13.291234 84.740016 13.75 85.28125 13.75 C 85.822484 13.75 86.28125 13.291234 86.28125 12.75 C 86.28125 12.208766 85.822484 11.78125 85.28125 11.78125 z M 89.21875 11.78125 C 88.677516 11.78125 88.21875 12.208766 88.21875 12.75 C 88.21875 13.291234 88.677516 13.75 89.21875 13.75 C 89.759984 13.75 90.1875 13.291234 90.1875 12.75 C 90.1875 12.208766 89.759984 11.78125 89.21875 11.78125 z M 73.53125 11.8125 C 72.990016 11.8125 72.5625 12.240016 72.5625 12.78125 C 72.5625 13.322484 72.990016 13.75 73.53125 13.75 C 74.072484 13.75 74.5 13.322484 74.5 12.78125 C 74.5 12.240016 74.072484 11.8125 73.53125 11.8125 z M 77.46875 11.8125 C 76.927516 11.8125 76.46875 12.240016 76.46875 12.78125 C 76.46875 13.322484 76.927516 13.75 77.46875 13.75 C 78.009984 13.75 78.4375 13.322484 78.4375 12.78125 C 78.4375 12.240016 78.009984 11.8125 77.46875 11.8125 z M 81.375 11.8125 C 80.833766 11.8125 80.40625 12.240016 80.40625 12.78125 C 80.40625 13.322484 80.833766 13.75 81.375 13.75 C 81.916234 13.75 82.375 13.322484 82.375 12.78125 C 82.375 12.240016 81.916234 11.8125 81.375 11.8125 z M 85.28125 15.65625 C 84.740016 15.65625 84.3125 16.115016 84.3125 16.65625 C 84.3125 17.197484 84.740016 17.625 85.28125 17.625 C 85.822484 17.625 86.28125 17.197484 86.28125 16.65625 C 86.28125 16.115016 85.822484 15.65625 85.28125 15.65625 z M 89.21875 15.65625 C 88.677516 15.65625 88.21875 16.115016 88.21875 16.65625 C 88.21875 17.197484 88.677516 17.625 89.21875 17.625 C 89.759984 17.625 90.1875 17.197484 90.1875 16.65625 C 90.1875 16.115016 89.759984 15.65625 89.21875 15.65625 z M 93.125 15.65625 C 92.583766 15.65625 92.15625 16.115016 92.15625 16.65625 C 92.15625 17.197484 92.583766 17.625 93.125 17.625 C 93.666234 17.625 94.09375 17.197484 94.09375 16.65625 C 94.09375 16.115016 93.666234 15.65625 93.125 15.65625 z M 69.625 15.6875 C 69.083766 15.6875 68.65625 16.146266 68.65625 16.6875 C 68.65625 17.228734 69.083766 17.65625 69.625 17.65625 C 70.166234 17.65625 70.59375 17.228734 70.59375 16.6875 C 70.59375 16.146266 70.166234 15.6875 69.625 15.6875 z M 73.53125 15.6875 C 72.990016 15.6875 72.5625 16.146266 72.5625 16.6875 C 72.5625 17.228734 72.990016 17.65625 73.53125 17.65625 C 74.072484 17.65625 74.5 17.228734 74.5 16.6875 C 74.5 16.146266 74.072484 15.6875 73.53125 15.6875 z M 77.46875 15.6875 C 76.927516 15.6875 76.46875 16.146266 76.46875 16.6875 C 76.46875 17.228734 76.927516 17.65625 77.46875 17.65625 C 78.009984 17.65625 78.4375 17.228734 78.4375 16.6875 C 78.4375 16.146266 78.009984 15.6875 77.46875 15.6875 z M 81.375 15.6875 C 80.833766 15.6875 80.40625 16.146266 80.40625 16.6875 C 80.40625 17.228734 80.833766 17.65625 81.375 17.65625 C 81.916234 17.65625 82.375 17.228734 82.375 16.6875 C 82.375 16.146266 81.916234 15.6875 81.375 15.6875 z M 65.71875 19.625 C 65.177516 19.625 64.71875 20.083766 64.71875 20.625 C 64.71875 21.166234 65.177516 21.59375 65.71875 21.59375 C 66.259984 21.59375 66.6875 21.166234 66.6875 20.625 C 66.6875 20.083766 66.259984 19.625 65.71875 19.625 z M 69.625 19.625 C 69.083766 19.625 68.65625 20.083766 68.65625 20.625 C 68.65625 21.166234 69.083766 21.59375 69.625 21.59375 C 70.166234 21.59375 70.59375 21.166234 70.59375 20.625 C 70.59375 20.083766 70.166234 19.625 69.625 19.625 z M 73.53125 19.625 C 72.990016 19.625 72.5625 20.083766 72.5625 20.625 C 72.5625 21.166234 72.990016 21.59375 73.53125 21.59375 C 74.072484 21.59375 74.5 21.166234 74.5 20.625 C 74.5 20.083766 74.072484 19.625 73.53125 19.625 z M 77.46875 19.625 C 76.927516 19.625 76.46875 20.083766 76.46875 20.625 C 76.46875 21.166234 76.927516 21.59375 77.46875 21.59375 C 78.009984 21.59375 78.4375 21.166234 78.4375 20.625 C 78.4375 20.083766 78.009984 19.625 77.46875 19.625 z M 81.375 19.625 C 80.833766 19.625 80.40625 20.083766 80.40625 20.625 C 80.40625 21.166234 80.833766 21.59375 81.375 21.59375 C 81.916234 21.59375 82.375 21.166234 82.375 20.625 C 82.375 20.083766 81.916234 19.625 81.375 19.625 z M 65.71875 23.5625 C 65.177516 23.5625 64.71875 23.990016 64.71875 24.53125 C 64.71875 25.072484 65.177516 25.5 65.71875 25.5 C 66.259984 25.5 66.6875 25.072484 66.6875 24.53125 C 66.6875 23.990016 66.259984 23.5625 65.71875 23.5625 z M 69.625 23.5625 C 69.083766 23.5625 68.65625 23.990016 68.65625 24.53125 C 68.65625 25.072484 69.083766 25.5 69.625 25.5 C 70.166234 25.5 70.59375 25.072484 70.59375 24.53125 C 70.59375 23.990016 70.166234 23.5625 69.625 23.5625 z M 81.375 23.5625 C 80.833766 23.5625 80.40625 23.990016 80.40625 24.53125 C 80.40625 25.072484 80.833766 25.5 81.375 25.5 C 81.916234 25.5 82.375 25.072484 82.375 24.53125 C 82.375 23.990016 81.916234 23.5625 81.375 23.5625 z M 65.71875 27.5 C 65.177516 27.5 64.71875 27.927516 64.71875 28.46875 C 64.71875 29.009984 65.177516 29.46875 65.71875 29.46875 C 66.259984 29.46875 66.6875 29.009984 66.6875 28.46875 C 66.6875 27.927516 66.259984 27.5 65.71875 27.5 z M 69.625 27.5 C 69.083766 27.5 68.65625 27.927516 68.65625 28.46875 C 68.65625 29.009984 69.083766 29.46875 69.625 29.46875 C 70.166234 29.46875 70.59375 29.009984 70.59375 28.46875 C 70.59375 27.927516 70.166234 27.5 69.625 27.5 z M 65.71875 31.375 C 65.177516 31.375 64.71875 31.802516 64.71875 32.34375 C 64.71875 32.884984 65.177516 33.3125 65.71875 33.3125 C 66.259984 33.3125 66.6875 32.884984 66.6875 32.34375 C 66.6875 31.802516 66.259984 31.375 65.71875 31.375 z M 69.625 31.375 C 69.083766 31.375 68.65625 31.802516 68.65625 32.34375 C 68.65625 32.884984 69.083766 33.3125 69.625 33.3125 C 70.166234 33.3125 70.59375 32.884984 70.59375 32.34375 C 70.59375 31.802516 70.166234 31.375 69.625 31.375 z M 65.71875 35.3125 C 65.177516 35.3125 64.71875 35.740016 64.71875 36.28125 C 64.71875 36.822484 65.177516 37.28125 65.71875 37.28125 C 66.259984 37.28125 66.6875 36.822484 66.6875 36.28125 C 66.6875 35.740016 66.259984 35.3125 65.71875 35.3125 z M 69.625 35.3125 C 69.083766 35.3125 68.65625 35.740016 68.65625 36.28125 C 68.65625 36.822484 69.083766 37.28125 69.625 37.28125 C 70.166234 37.28125 70.59375 36.822484 70.59375 36.28125 C 70.59375 35.740016 70.166234 35.3125 69.625 35.3125 z M 73.53125 35.3125 C 72.990016 35.3125 72.5625 35.740016 72.5625 36.28125 C 72.5625 36.822484 72.990016 37.28125 73.53125 37.28125 C 74.072484 37.28125 74.5 36.822484 74.5 36.28125 C 74.5 35.740016 74.072484 35.3125 73.53125 35.3125 z M 65.71875 39.21875 C 65.177516 39.21875 64.71875 39.646266 64.71875 40.1875 C 64.71875 40.728734 65.177516 41.1875 65.71875 41.1875 C 66.259984 41.1875 66.6875 40.728734 66.6875 40.1875 C 66.6875 39.646266 66.259984 39.21875 65.71875 39.21875 z M 69.625 39.21875 C 69.083766 39.21875 68.65625 39.646266 68.65625 40.1875 C 68.65625 40.728734 69.083766 41.1875 69.625 41.1875 C 70.166234 41.1875 70.59375 40.728734 70.59375 40.1875 C 70.59375 39.646266 70.166234 39.21875 69.625 39.21875 z M 73.53125 39.21875 C 72.990016 39.21875 72.5625 39.646266 72.5625 40.1875 C 72.5625 40.728734 72.990016 41.1875 73.53125 41.1875 C 74.072484 41.1875 74.5 40.728734 74.5 40.1875 C 74.5 39.646266 74.072484 39.21875 73.53125 39.21875 z M 65.71875 43.15625 C 65.177516 43.15625 64.71875 43.615016 64.71875 44.15625 C 64.71875 44.697484 65.177516 45.125 65.71875 45.125 C 66.259984 45.125 66.6875 44.697484 66.6875 44.15625 C 66.6875 43.615016 66.259984 43.15625 65.71875 43.15625 z M 69.625 43.15625 C 69.083766 43.15625 68.65625 43.615016 68.65625 44.15625 C 68.65625 44.697484 69.083766 45.125 69.625 45.125 C 70.166234 45.125 70.59375 44.697484 70.59375 44.15625 C 70.59375 43.615016 70.166234 43.15625 69.625 43.15625 z M 73.53125 43.15625 C 72.990016 43.15625 72.5625 43.615016 72.5625 44.15625 C 72.5625 44.697484 72.990016 45.125 73.53125 45.125 C 74.072484 45.125 74.5 44.697484 74.5 44.15625 C 74.5 43.615016 74.072484 43.15625 73.53125 43.15625 z M 65.71875 47.0625 C 65.177516 47.0625 64.71875 47.490016 64.71875 48.03125 C 64.71875 48.572484 65.177516 49.03125 65.71875 49.03125 C 66.259984 49.03125 66.6875 48.572484 66.6875 48.03125 C 66.6875 47.490016 66.259984 47.0625 65.71875 47.0625 z M 69.625 47.0625 C 69.083766 47.0625 68.65625 47.490016 68.65625 48.03125 C 68.65625 48.572484 69.083766 49.03125 69.625 49.03125 C 70.166234 49.03125 70.59375 48.572484 70.59375 48.03125 C 70.59375 47.490016 70.166234 47.0625 69.625 47.0625 z M 57.875 51 C 57.333766 51 56.875 51.427516 56.875 51.96875 C 56.875 52.509984 57.333766 52.96875 57.875 52.96875 C 58.416234 52.96875 58.84375 52.509984 58.84375 51.96875 C 58.84375 51.427516 58.416234 51 57.875 51 z M 61.78125 51 C 61.240016 51 60.8125 51.427516 60.8125 51.96875 C 60.8125 52.509984 61.240016 52.96875 61.78125 52.96875 C 62.322484 52.96875 62.75 52.509984 62.75 51.96875 C 62.75 51.427516 62.322484 51 61.78125 51 z M 65.71875 51 C 65.177516 51 64.71875 51.427516 64.71875 51.96875 C 64.71875 52.509984 65.177516 52.96875 65.71875 52.96875 C 66.259984 52.96875 66.6875 52.509984 66.6875 51.96875 C 66.6875 51.427516 66.259984 51 65.71875 51 z M 69.625 51 C 69.083766 51 68.65625 51.427516 68.65625 51.96875 C 68.65625 52.509984 69.083766 52.96875 69.625 52.96875 C 70.166234 52.96875 70.59375 52.509984 70.59375 51.96875 C 70.59375 51.427516 70.166234 51 69.625 51 z M 50.03125 54.90625 C 49.490016 54.90625 49.03125 55.365016 49.03125 55.90625 C 49.03125 56.447484 49.490016 56.875 50.03125 56.875 C 50.572484 56.875 51 56.447484 51 55.90625 C 51 55.365016 50.572484 54.90625 50.03125 54.90625 z M 57.875 54.90625 C 57.333766 54.90625 56.875 55.365016 56.875 55.90625 C 56.875 56.447484 57.333766 56.875 57.875 56.875 C 58.416234 56.875 58.84375 56.447484 58.84375 55.90625 C 58.84375 55.365016 58.416234 54.90625 57.875 54.90625 z M 61.78125 54.90625 C 61.240016 54.90625 60.8125 55.365016 60.8125 55.90625 C 60.8125 56.447484 61.240016 56.875 61.78125 56.875 C 62.322484 56.875 62.75 56.447484 62.75 55.90625 C 62.75 55.365016 62.322484 54.90625 61.78125 54.90625 z M 65.71875 54.90625 C 65.177516 54.90625 64.71875 55.365016 64.71875 55.90625 C 64.71875 56.447484 65.177516 56.875 65.71875 56.875 C 66.259984 56.875 66.6875 56.447484 66.6875 55.90625 C 66.6875 55.365016 66.259984 54.90625 65.71875 54.90625 z M 69.625 54.90625 C 69.083766 54.90625 68.65625 55.365016 68.65625 55.90625 C 68.65625 56.447484 69.083766 56.875 69.625 56.875 C 70.166234 56.875 70.59375 56.447484 70.59375 55.90625 C 70.59375 55.365016 70.166234 54.90625 69.625 54.90625 z M 50.03125 58.84375 C 49.490016 58.84375 49.03125 59.302516 49.03125 59.84375 C 49.03125 60.384984 49.490016 60.8125 50.03125 60.8125 C 50.572484 60.8125 51 60.384984 51 59.84375 C 51 59.302516 50.572484 58.84375 50.03125 58.84375 z M 53.9375 58.84375 C 53.396266 58.84375 52.96875 59.302516 52.96875 59.84375 C 52.96875 60.384984 53.396266 60.8125 53.9375 60.8125 C 54.478734 60.8125 54.9375 60.384984 54.9375 59.84375 C 54.9375 59.302516 54.478734 58.84375 53.9375 58.84375 z M 57.875 58.84375 C 57.333766 58.84375 56.875 59.302516 56.875 59.84375 C 56.875 60.384984 57.333766 60.8125 57.875 60.8125 C 58.416234 60.8125 58.84375 60.384984 58.84375 59.84375 C 58.84375 59.302516 58.416234 58.84375 57.875 58.84375 z M 61.78125 58.84375 C 61.240016 58.84375 60.8125 59.302516 60.8125 59.84375 C 60.8125 60.384984 61.240016 60.8125 61.78125 60.8125 C 62.322484 60.8125 62.75 60.384984 62.75 59.84375 C 62.75 59.302516 62.322484 58.84375 61.78125 58.84375 z M 65.71875 58.84375 C 65.177516 58.84375 64.71875 59.302516 64.71875 59.84375 C 64.71875 60.384984 65.177516 60.8125 65.71875 60.8125 C 66.259984 60.8125 66.6875 60.384984 66.6875 59.84375 C 66.6875 59.302516 66.259984 58.84375 65.71875 58.84375 z M 46.09375 62.75 C 45.552516 62.75 45.09375 63.177516 45.09375 63.71875 C 45.09375 64.259984 45.552516 64.6875 46.09375 64.6875 C 46.634984 64.6875 47.0625 64.259984 47.0625 63.71875 C 47.0625 63.177516 46.634984 62.75 46.09375 62.75 z M 50.03125 62.75 C 49.490016 62.75 49.03125 63.177516 49.03125 63.71875 C 49.03125 64.259984 49.490016 64.6875 50.03125 64.6875 C 50.572484 64.6875 51 64.259984 51 63.71875 C 51 63.177516 50.572484 62.75 50.03125 62.75 z M 53.9375 62.75 C 53.396266 62.75 52.96875 63.177516 52.96875 63.71875 C 52.96875 64.259984 53.396266 64.6875 53.9375 64.6875 C 54.478734 64.6875 54.9375 64.259984 54.9375 63.71875 C 54.9375 63.177516 54.478734 62.75 53.9375 62.75 z M 57.875 62.75 C 57.333766 62.75 56.875 63.177516 56.875 63.71875 C 56.875 64.259984 57.333766 64.6875 57.875 64.6875 C 58.416234 64.6875 58.84375 64.259984 58.84375 63.71875 C 58.84375 63.177516 58.416234 62.75 57.875 62.75 z M 61.78125 62.75 C 61.240016 62.75 60.8125 63.177516 60.8125 63.71875 C 60.8125 64.259984 61.240016 64.6875 61.78125 64.6875 C 62.322484 64.6875 62.75 64.259984 62.75 63.71875 C 62.75 63.177516 62.322484 62.75 61.78125 62.75 z M 65.71875 62.75 C 65.177516 62.75 64.71875 63.177516 64.71875 63.71875 C 64.71875 64.259984 65.177516 64.6875 65.71875 64.6875 C 66.259984 64.6875 66.6875 64.259984 66.6875 63.71875 C 66.6875 63.177516 66.259984 62.75 65.71875 62.75 z M 38.25 66.65625 C 37.708766 66.65625 37.28125 67.083766 37.28125 67.625 C 37.28125 68.166234 37.708766 68.59375 38.25 68.59375 C 38.791234 68.59375 39.25 68.166234 39.25 67.625 C 39.25 67.083766 38.791234 66.65625 38.25 66.65625 z M 30.40625 66.6875 C 29.865016 66.6875 29.4375 67.115016 29.4375 67.65625 C 29.4375 68.197484 29.865016 68.625 30.40625 68.625 C 30.947484 68.625 31.40625 68.197484 31.40625 67.65625 C 31.40625 67.115016 30.947484 66.6875 30.40625 66.6875 z M 34.3125 66.6875 C 33.771266 66.6875 33.34375 67.115016 33.34375 67.65625 C 33.34375 68.197484 33.771266 68.625 34.3125 68.625 C 34.853734 68.625 35.3125 68.197484 35.3125 67.65625 C 35.3125 67.115016 34.853734 66.6875 34.3125 66.6875 z M 42.1875 66.6875 C 41.646266 66.6875 41.21875 67.115016 41.21875 67.65625 C 41.21875 68.197484 41.646266 68.65625 42.1875 68.65625 C 42.728734 68.65625 43.15625 68.197484 43.15625 67.65625 C 43.15625 67.115016 42.728734 66.6875 42.1875 66.6875 z M 46.09375 66.6875 C 45.552516 66.6875 45.09375 67.115016 45.09375 67.65625 C 45.09375 68.197484 45.552516 68.65625 46.09375 68.65625 C 46.634984 68.65625 47.0625 68.197484 47.0625 67.65625 C 47.0625 67.115016 46.634984 66.6875 46.09375 66.6875 z M 50.03125 66.6875 C 49.490016 66.6875 49.03125 67.115016 49.03125 67.65625 C 49.03125 68.197484 49.490016 68.65625 50.03125 68.65625 C 50.572484 68.65625 51 68.197484 51 67.65625 C 51 67.115016 50.572484 66.6875 50.03125 66.6875 z M 53.9375 66.6875 C 53.396266 66.6875 52.96875 67.115016 52.96875 67.65625 C 52.96875 68.197484 53.396266 68.65625 53.9375 68.65625 C 54.478734 68.65625 54.9375 68.197484 54.9375 67.65625 C 54.9375 67.115016 54.478734 66.6875 53.9375 66.6875 z M 57.875 66.6875 C 57.333766 66.6875 56.875 67.115016 56.875 67.65625 C 56.875 68.197484 57.333766 68.65625 57.875 68.65625 C 58.416234 68.65625 58.84375 68.197484 58.84375 67.65625 C 58.84375 67.115016 58.416234 66.6875 57.875 66.6875 z M 61.78125 66.6875 C 61.240016 66.6875 60.8125 67.115016 60.8125 67.65625 C 60.8125 68.197484 61.240016 68.65625 61.78125 68.65625 C 62.322484 68.65625 62.75 68.197484 62.75 67.65625 C 62.75 67.115016 62.322484 66.6875 61.78125 66.6875 z M 65.71875 66.6875 C 65.177516 66.6875 64.71875 67.115016 64.71875 67.65625 C 64.71875 68.197484 65.177516 68.65625 65.71875 68.65625 C 66.259984 68.65625 66.6875 68.197484 66.6875 67.65625 C 66.6875 67.115016 66.259984 66.6875 65.71875 66.6875 z M 38.25 70.5625 C 37.708766 70.5625 37.28125 70.990016 37.28125 71.53125 C 37.28125 72.072484 37.708766 72.53125 38.25 72.53125 C 38.791234 72.53125 39.25 72.072484 39.25 71.53125 C 39.25 70.990016 38.791234 70.5625 38.25 70.5625 z M 10.8125 70.59375 C 10.271266 70.59375 9.84375 71.021266 9.84375 71.5625 C 9.84375 72.103734 10.271266 72.5625 10.8125 72.5625 C 11.353734 72.5625 11.78125 72.103734 11.78125 71.5625 C 11.78125 71.021266 11.353734 70.59375 10.8125 70.59375 z M 22.59375 70.59375 C 22.052516 70.59375 21.59375 71.021266 21.59375 71.5625 C 21.59375 72.103734 22.052516 72.5625 22.59375 72.5625 C 23.134984 72.5625 23.5625 72.103734 23.5625 71.5625 C 23.5625 71.021266 23.134984 70.59375 22.59375 70.59375 z M 26.5 70.59375 C 25.958766 70.59375 25.53125 71.021266 25.53125 71.5625 C 25.53125 72.103734 25.958766 72.5625 26.5 72.5625 C 27.041234 72.5625 27.46875 72.103734 27.46875 71.5625 C 27.46875 71.021266 27.041234 70.59375 26.5 70.59375 z M 30.40625 70.59375 C 29.865016 70.59375 29.4375 71.021266 29.4375 71.5625 C 29.4375 72.103734 29.865016 72.5625 30.40625 72.5625 C 30.947484 72.5625 31.40625 72.103734 31.40625 71.5625 C 31.40625 71.021266 30.947484 70.59375 30.40625 70.59375 z M 34.3125 70.59375 C 33.771266 70.59375 33.34375 71.021266 33.34375 71.5625 C 33.34375 72.103734 33.771266 72.5625 34.3125 72.5625 C 34.853734 72.5625 35.3125 72.103734 35.3125 71.5625 C 35.3125 71.021266 34.853734 70.59375 34.3125 70.59375 z M 42.1875 70.59375 C 41.646266 70.59375 41.21875 71.021266 41.21875 71.5625 C 41.21875 72.103734 41.646266 72.5625 42.1875 72.5625 C 42.728734 72.5625 43.15625 72.103734 43.15625 71.5625 C 43.15625 71.021266 42.728734 70.59375 42.1875 70.59375 z M 46.09375 70.59375 C 45.552516 70.59375 45.09375 71.021266 45.09375 71.5625 C 45.09375 72.103734 45.552516 72.5625 46.09375 72.5625 C 46.634984 72.5625 47.0625 72.103734 47.0625 71.5625 C 47.0625 71.021266 46.634984 70.59375 46.09375 70.59375 z M 50.03125 70.59375 C 49.490016 70.59375 49.03125 71.021266 49.03125 71.5625 C 49.03125 72.103734 49.490016 72.5625 50.03125 72.5625 C 50.572484 72.5625 51 72.103734 51 71.5625 C 51 71.021266 50.572484 70.59375 50.03125 70.59375 z M 53.9375 70.59375 C 53.396266 70.59375 52.96875 71.021266 52.96875 71.5625 C 52.96875 72.103734 53.396266 72.5625 53.9375 72.5625 C 54.478734 72.5625 54.9375 72.103734 54.9375 71.5625 C 54.9375 71.021266 54.478734 70.59375 53.9375 70.59375 z M 57.875 70.59375 C 57.333766 70.59375 56.875 71.021266 56.875 71.5625 C 56.875 72.103734 57.333766 72.5625 57.875 72.5625 C 58.416234 72.5625 58.84375 72.103734 58.84375 71.5625 C 58.84375 71.021266 58.416234 70.59375 57.875 70.59375 z M 38.25 74.5 C 37.708766 74.5 37.28125 74.927516 37.28125 75.46875 C 37.28125 76.009984 37.708766 76.46875 38.25 76.46875 C 38.791234 76.46875 39.25 76.009984 39.25 75.46875 C 39.25 74.927516 38.791234 74.5 38.25 74.5 z M 10.8125 74.53125 C 10.271266 74.53125 9.84375 74.990016 9.84375 75.53125 C 9.84375 76.072484 10.271266 76.5 10.8125 76.5 C 11.353734 76.5 11.78125 76.072484 11.78125 75.53125 C 11.78125 74.990016 11.353734 74.53125 10.8125 74.53125 z M 18.65625 74.53125 C 18.115016 74.53125 17.6875 74.990016 17.6875 75.53125 C 17.6875 76.072484 18.115016 76.5 18.65625 76.5 C 19.197484 76.5 19.65625 76.072484 19.65625 75.53125 C 19.65625 74.990016 19.197484 74.53125 18.65625 74.53125 z M 22.59375 74.53125 C 22.052516 74.53125 21.59375 74.990016 21.59375 75.53125 C 21.59375 76.072484 22.052516 76.5 22.59375 76.5 C 23.134984 76.5 23.5625 76.072484 23.5625 75.53125 C 23.5625 74.990016 23.134984 74.53125 22.59375 74.53125 z M 34.3125 74.53125 C 33.771266 74.53125 33.34375 74.990016 33.34375 75.53125 C 33.34375 76.072484 33.771266 76.5 34.3125 76.5 C 34.853734 76.5 35.3125 76.072484 35.3125 75.53125 C 35.3125 74.990016 34.853734 74.53125 34.3125 74.53125 z M 42.1875 74.53125 C 41.646266 74.53125 41.21875 74.990016 41.21875 75.53125 C 41.21875 76.072484 41.646266 76.5 42.1875 76.5 C 42.728734 76.5 43.15625 76.072484 43.15625 75.53125 C 43.15625 74.990016 42.728734 74.53125 42.1875 74.53125 z M 46.09375 74.53125 C 45.552516 74.53125 45.09375 74.990016 45.09375 75.53125 C 45.09375 76.072484 45.552516 76.5 46.09375 76.5 C 46.634984 76.5 47.0625 76.072484 47.0625 75.53125 C 47.0625 74.990016 46.634984 74.53125 46.09375 74.53125 z M 14.75 78.40625 C 14.208766 78.40625 13.78125 78.833766 13.78125 79.375 C 13.78125 79.916234 14.208766 80.375 14.75 80.375 C 15.291234 80.375 15.71875 79.916234 15.71875 79.375 C 15.71875 78.833766 15.291234 78.40625 14.75 78.40625 z M 18.65625 78.40625 C 18.115016 78.40625 17.6875 78.833766 17.6875 79.375 C 17.6875 79.916234 18.115016 80.375 18.65625 80.375 C 19.197484 80.375 19.65625 79.916234 19.65625 79.375 C 19.65625 78.833766 19.197484 78.40625 18.65625 78.40625 z M 22.59375 78.40625 C 22.052516 78.40625 21.59375 78.833766 21.59375 79.375 C 21.59375 79.916234 22.052516 80.375 22.59375 80.375 C 23.134984 80.375 23.5625 79.916234 23.5625 79.375 C 23.5625 78.833766 23.134984 78.40625 22.59375 78.40625 z M 30.40625 78.40625 C 29.865016 78.40625 29.4375 78.833766 29.4375 79.375 C 29.4375 79.916234 29.865016 80.375 30.40625 80.375 C 30.947484 80.375 31.40625 79.916234 31.40625 79.375 C 31.40625 78.833766 30.947484 78.40625 30.40625 78.40625 z M 34.3125 78.40625 C 33.771266 78.40625 33.34375 78.833766 33.34375 79.375 C 33.34375 79.916234 33.771266 80.375 34.3125 80.375 C 34.853734 80.375 35.3125 79.916234 35.3125 79.375 C 35.3125 78.833766 34.853734 78.40625 34.3125 78.40625 z M 42.1875 78.40625 C 41.646266 78.40625 41.21875 78.833766 41.21875 79.375 C 41.21875 79.916234 41.646266 80.375 42.1875 80.375 C 42.728734 80.375 43.15625 79.916234 43.15625 79.375 C 43.15625 78.833766 42.728734 78.40625 42.1875 78.40625 z M 6.875 82.34375 C 6.3337659 82.34375 5.90625 82.771266 5.90625 83.3125 C 5.90625 83.853734 6.3337659 84.3125 6.875 84.3125 C 7.4162341 84.3125 7.84375 83.853734 7.84375 83.3125 C 7.84375 82.771266 7.4162341 82.34375 6.875 82.34375 z M 14.75 82.34375 C 14.208766 82.34375 13.78125 82.771266 13.78125 83.3125 C 13.78125 83.853734 14.208766 84.3125 14.75 84.3125 C 15.291234 84.3125 15.71875 83.853734 15.71875 83.3125 C 15.71875 82.771266 15.291234 82.34375 14.75 82.34375 z M 18.65625 82.34375 C 18.115016 82.34375 17.6875 82.771266 17.6875 83.3125 C 17.6875 83.853734 18.115016 84.3125 18.65625 84.3125 C 19.197484 84.3125 19.65625 83.853734 19.65625 83.3125 C 19.65625 82.771266 19.197484 82.34375 18.65625 82.34375 z M 22.59375 82.34375 C 22.052516 82.34375 21.59375 82.771266 21.59375 83.3125 C 21.59375 83.853734 22.052516 84.3125 22.59375 84.3125 C 23.134984 84.3125 23.5625 83.853734 23.5625 83.3125 C 23.5625 82.771266 23.134984 82.34375 22.59375 82.34375 z M 26.5 82.34375 C 25.958766 82.34375 25.53125 82.771266 25.53125 83.3125 C 25.53125 83.853734 25.958766 84.3125 26.5 84.3125 C 27.041234 84.3125 27.46875 83.853734 27.46875 83.3125 C 27.46875 82.771266 27.041234 82.34375 26.5 82.34375 z M 30.40625 82.34375 C 29.865016 82.34375 29.4375 82.771266 29.4375 83.3125 C 29.4375 83.853734 29.865016 84.3125 30.40625 84.3125 C 30.947484 84.3125 31.40625 83.853734 31.40625 83.3125 C 31.40625 82.771266 30.947484 82.34375 30.40625 82.34375 z M 14.75 86.25 C 14.208766 86.25 13.78125 86.708766 13.78125 87.25 C 13.78125 87.791234 14.208766 88.21875 14.75 88.21875 C 15.291234 88.21875 15.71875 87.791234 15.71875 87.25 C 15.71875 86.708766 15.291234 86.25 14.75 86.25 z M 18.65625 86.25 C 18.115016 86.25 17.6875 86.708766 17.6875 87.25 C 17.6875 87.791234 18.115016 88.21875 18.65625 88.21875 C 19.197484 88.21875 19.65625 87.791234 19.65625 87.25 C 19.65625 86.708766 19.197484 86.25 18.65625 86.25 z M 22.59375 86.25 C 22.052516 86.25 21.59375 86.708766 21.59375 87.25 C 21.59375 87.791234 22.052516 88.21875 22.59375 88.21875 C 23.134984 88.21875 23.5625 87.791234 23.5625 87.25 C 23.5625 86.708766 23.134984 86.25 22.59375 86.25 z M 14.75 90.1875 C 14.208766 90.1875 13.78125 90.646266 13.78125 91.1875 C 13.78125 91.728734 14.208766 92.15625 14.75 92.15625 C 15.291234 92.15625 15.71875 91.728734 15.71875 91.1875 C 15.71875 90.646266 15.291234 90.1875 14.75 90.1875 z M 18.65625 90.1875 C 18.115016 90.1875 17.6875 90.646266 17.6875 91.1875 C 17.6875 91.728734 18.115016 92.15625 18.65625 92.15625 C 19.197484 92.15625 19.65625 91.728734 19.65625 91.1875 C 19.65625 90.646266 19.197484 90.1875 18.65625 90.1875 z M 18.65625 94.09375 C 18.115016 94.09375 17.6875 94.521266 17.6875 95.0625 C 17.6875 95.603734 18.115016 96.0625 18.65625 96.0625 C 19.197484 96.0625 19.65625 95.603734 19.65625 95.0625 C 19.65625 94.521266 19.197484 94.09375 18.65625 94.09375 z M 18.65625 98.03125 C 18.115016 98.03125 17.6875 98.490016 17.6875 99.03125 C 17.6875 99.572484 18.115016 100 18.65625 100 C 19.197484 100 19.65625 99.572484 19.65625 99.03125 C 19.65625 98.490016 19.197484 98.03125 18.65625 98.03125 z " transform="matrix(1.0307744,0,0,1.0307744,-2553.9275,-42.452217)" fill="#000000" fill-rule="evenodd" stroke="none"/></g></g></g></g></g></g></g><text x="0" y="115" fill="#000000" font-size="5px" font-weight="bold" font-family="'Helvetica Neue', Helvetica, Arial-Unicode, Arial, Sans-serif">Created by Chameleon Design</text><text x="0" y="120" fill="#000000" font-size="5px" font-weight="bold" font-family="'Helvetica Neue', Helvetica, Arial-Unicode, Arial, Sans-serif">from the Noun Project</text></svg>